<svg width="838" height="526" viewBox="0 0 838 526" fill="none" xmlns="http://www.w3.org/2000/svg">
<path d="M526.045 200.907C527.246 199.965 526.824 198.653 525.084 197.993C478.788 180.424 423.773 171.271 367.852 171.866C310.663 172.475 255.576 183.245 210.777 202.578C165.977 221.911 133.855 248.774 119.181 279.176C104.508 309.579 108.067 341.899 129.33 371.336C150.592 400.772 188.424 425.753 237.204 442.569C285.984 459.384 343.111 467.136 400.096 464.674C457.081 462.211 510.885 449.665 553.514 428.899C595.198 408.594 624.022 381.488 635.935 351.456C636.382 350.327 635.05 349.21 632.992 348.966C630.934 348.721 628.929 349.442 628.48 350.571C616.895 379.721 588.905 406.029 548.441 425.74C507.031 445.912 454.766 458.099 399.411 460.491C344.056 462.884 288.564 455.353 241.18 439.019C193.795 422.684 157.045 398.418 136.391 369.824C115.737 341.229 112.28 309.834 126.533 280.301C140.786 250.768 171.99 224.673 215.508 205.894C259.026 187.114 312.537 176.652 368.09 176.061C422.375 175.483 475.781 184.361 520.734 201.405C522.474 202.065 524.844 201.849 526.045 200.907Z" fill="url(#paint0_linear_52_4)"/>
<g filter="url(#filter0_d_52_4)">
<path d="M608.824 223.487C610.689 222.966 611.419 221.704 610.425 220.677C583.735 193.08 541.898 170.76 490.936 156.974C438.831 142.877 380.022 138.469 323.406 144.417C266.79 150.364 215.448 166.342 177.145 189.935C138.843 213.528 115.664 243.452 111.116 275.18C106.567 306.907 120.896 338.713 151.935 365.786C182.974 392.858 229.035 413.724 283.149 425.228C337.263 436.731 396.486 438.246 451.86 429.544C506.018 421.032 553.613 403.199 587.777 378.656C589.049 377.743 588.689 376.426 586.999 375.727C585.31 375.028 582.93 375.211 581.658 376.124C548.475 399.94 502.269 417.245 449.695 425.508C395.905 433.962 338.376 432.49 285.81 421.316C233.244 410.142 188.501 389.872 158.35 363.574C128.199 337.276 114.28 306.38 118.698 275.56C123.116 244.74 145.632 215.672 182.839 192.754C220.046 169.836 269.919 154.315 324.915 148.538C379.912 142.761 437.038 147.043 487.653 160.736C537.124 174.119 577.744 195.781 603.673 222.563C604.667 223.59 606.96 224.008 608.824 223.487Z" fill="url(#paint1_linear_52_4)" shape-rendering="crispEdges"/>
</g>
<path d="M436.767 169.586C385.438 159.524 329.37 160.373 279.589 171.967C229.809 183.56 189.919 205.06 167.764 232.237C145.608 259.413 142.791 290.301 159.866 318.825C176.941 347.349 212.673 371.445 260.034 386.375C307.395 401.305 362.959 405.988 415.797 399.503C468.636 393.018 514.925 375.834 545.563 351.331C576.201 326.828 588.97 296.779 581.358 267.094C573.747 237.408 546.306 210.234 504.432 190.916L421.98 245.519C438.883 253.317 449.961 264.286 453.033 276.269C456.106 288.252 450.951 300.382 438.584 310.273C426.216 320.164 407.531 327.1 386.202 329.718C364.872 332.336 342.443 330.446 323.325 324.419C304.207 318.392 289.783 308.665 282.891 297.151C275.998 285.637 277.135 273.169 286.079 262.198C295.022 251.228 311.124 242.549 331.219 237.869C351.314 233.189 373.946 232.847 394.666 236.908L436.767 169.586Z" fill="url(#paint2_linear_52_4)"/>
<g filter="url(#filter1_d_52_4)">
<path d="M537.878 169.902C538.144 169.74 538.118 169.489 537.821 169.341C497.511 149.297 446.414 137.132 392.571 134.768C338.487 132.394 284.733 140.044 239.842 156.504C194.952 172.965 161.5 197.291 144.797 225.621C128.094 253.951 129.099 284.66 147.652 312.872C166.204 341.084 201.241 365.183 247.198 381.34C293.155 397.497 347.399 404.787 401.315 402.053C455.232 399.319 505.73 386.717 544.792 366.248C583.681 345.869 609.014 318.857 616.816 289.467C616.873 289.25 616.599 289.046 616.206 289.013C615.812 288.979 615.446 289.128 615.389 289.345C607.633 318.56 582.45 345.411 543.793 365.668C504.962 386.016 454.763 398.543 401.166 401.262C347.569 403.98 293.647 396.733 247.962 380.671C202.277 364.609 167.448 340.654 149.006 312.609C130.563 284.564 129.565 254.037 146.168 225.875C162.772 197.713 196.026 173.531 240.65 157.168C285.274 140.805 338.711 133.2 392.474 135.561C445.997 137.91 496.789 150.002 536.859 169.927C537.157 170.075 537.613 170.064 537.878 169.902Z" fill="url(#paint3_linear_52_4)" shape-rendering="crispEdges"/>
</g>
<g filter="url(#filter2_d_52_4)">
<path d="M419.266 192.571C380.661 185.003 338.492 185.642 301.051 194.362C263.611 203.081 233.609 219.251 216.946 239.691C200.283 260.131 198.164 283.362 211.006 304.815C223.848 326.269 250.723 344.392 286.343 355.621C321.964 366.849 363.754 370.371 403.495 365.494C443.235 360.616 478.05 347.692 501.093 329.264C524.136 310.835 533.74 288.235 528.015 265.908C522.29 243.581 501.651 223.143 470.158 208.614L408.145 249.681C420.858 255.546 429.189 263.796 431.5 272.809C433.811 281.821 429.934 290.944 420.633 298.383C411.331 305.822 397.277 311.039 381.235 313.008C365.194 314.977 348.324 313.555 333.945 309.023C319.566 304.49 308.718 297.174 303.534 288.514C298.35 279.854 299.205 270.477 305.932 262.226C312.658 253.975 324.769 247.448 339.882 243.928C354.996 240.408 372.018 240.15 387.602 243.205L419.266 192.571Z" fill="url(#paint4_linear_52_4)" fill-opacity="0.3" shape-rendering="crispEdges"/>
</g>
<g filter="url(#filter3_d_52_4)">
<path d="M444.628 148.914C414.49 139.621 379.923 135.766 345.836 137.897C311.749 140.027 279.875 148.036 254.739 160.785C229.604 173.533 212.486 190.374 205.816 208.915C199.146 227.457 203.263 246.756 217.582 264.073C231.902 281.389 255.696 295.842 285.585 305.38C315.475 314.918 349.94 319.055 384.087 317.204C418.234 315.353 450.327 307.608 475.807 295.069C501.287 282.53 518.86 265.834 526.03 247.353L430.699 235.502C427.805 242.962 420.711 249.702 410.425 254.763C400.14 259.825 387.185 262.951 373.401 263.699C359.617 264.446 345.705 262.776 333.639 258.926C321.574 255.076 311.969 249.241 306.189 242.251C300.408 235.261 298.747 227.471 301.439 219.986C304.132 212.502 311.042 205.703 321.188 200.557C331.334 195.411 344.201 192.178 357.961 191.318C371.72 190.458 385.674 192.014 397.84 195.765L444.628 148.914Z" fill="url(#paint5_linear_52_4)" fill-opacity="0.8" shape-rendering="crispEdges"/>
</g>
<g filter="url(#filter4_d_52_4)">
<path d="M491.053 124.141C464.567 106.67 427.252 95.2559 386.522 92.1674C345.793 89.0789 304.631 94.5418 271.218 107.471C237.804 120.399 214.584 139.847 206.173 161.95C197.763 184.052 204.776 207.19 225.82 226.767C246.865 246.343 280.399 260.924 319.759 267.612C359.118 274.3 401.422 272.605 438.263 262.864C475.104 253.123 503.784 236.05 518.605 215.036C533.425 194.023 533.301 170.609 518.256 149.446L427.561 168.549C433.634 177.092 433.684 186.543 427.702 195.026C421.719 203.508 410.142 210.4 395.27 214.332C380.399 218.264 363.322 218.948 347.434 216.249C331.546 213.549 318.009 207.663 309.514 199.761C301.019 191.858 298.188 182.518 301.583 173.596C304.979 164.674 314.351 156.824 327.84 151.605C341.328 146.386 357.943 144.181 374.384 145.427C390.825 146.674 405.888 151.281 416.58 158.334L491.053 124.141Z" fill="url(#paint6_linear_52_4)"/>
</g>
<path d="M502 120.509C502 124.928 505.582 128.509 510 128.509C514.418 128.509 518 124.928 518 120.509C518 116.091 514.418 112.509 510 112.509C505.582 112.509 502 116.091 502 120.509ZM557.5 120.509V122.009H557.571L557.642 122.003L557.5 120.509ZM569 19.0094H567.5V19.0186L567.5 19.0278L569 19.0094ZM575 8.00939L575.071 6.51108L575 8.00939ZM728 8.00939C728 12.4277 731.582 16.0094 736 16.0094C740.418 16.0094 744 12.4277 744 8.00939C744 3.59111 740.418 0.00938606 736 0.00938606C731.582 0.00938606 728 3.59111 728 8.00939ZM510 122.009H557.5V119.009H510V122.009ZM557.642 122.003C559.606 121.816 562.538 121.019 565.122 119.214C567.746 117.38 570.038 114.476 570.492 110.166L567.508 109.852C567.162 113.143 565.454 115.322 563.403 116.755C561.312 118.216 558.894 118.87 557.358 119.016L557.642 122.003ZM570.492 110.166C570.903 106.262 570.983 90.1855 570.925 71.8421C570.867 53.432 570.667 32.5772 570.5 18.991L567.5 19.0278C567.667 32.6082 567.867 53.4534 567.925 71.8516C567.984 90.3166 567.897 106.157 567.508 109.852L570.492 110.166ZM570.5 19.0094C570.5 16.4314 570.517 13.891 571.167 12.0187C571.479 11.1212 571.898 10.5009 572.426 10.1083C572.937 9.72825 573.701 9.44928 574.929 9.50769L575.071 6.51108C573.299 6.42675 571.813 6.82623 570.636 7.70051C569.477 8.56213 568.771 9.77193 568.333 11.0349C567.483 13.4836 567.5 16.586 567.5 19.0094H570.5ZM574.929 9.50769C583.379 9.90979 685.88 9.67591 736.005 9.50938L735.995 6.50939C685.787 6.6762 583.421 6.90837 575.071 6.51108L574.929 9.50769Z" fill="url(#paint7_linear_52_4)"/>
<path d="M274 120.509C274 124.928 270.418 128.509 266 128.509C261.582 128.509 258 124.928 258 120.509C258 116.091 261.582 112.509 266 112.509C270.418 112.509 274 116.091 274 120.509ZM218.5 120.509V122.009H218.429L218.358 122.003L218.5 120.509ZM207 19.0094H208.5V19.0186L208.5 19.0278L207 19.0094ZM201 8.00939L200.929 6.51108L201 8.00939ZM48 8.00939C48 12.4277 44.4183 16.0094 40 16.0094C35.5817 16.0094 32 12.4277 32 8.00939C32 3.59111 35.5817 0.00938606 40 0.00938606C44.4183 0.00938606 48 3.59111 48 8.00939ZM266 122.009H218.5V119.009H266V122.009ZM218.358 122.003C216.394 121.816 213.462 121.019 210.878 119.214C208.254 117.38 205.962 114.476 205.508 110.166L208.492 109.852C208.838 113.143 210.546 115.322 212.597 116.755C214.688 118.216 217.106 118.87 218.642 119.016L218.358 122.003ZM205.508 110.166C205.097 106.262 205.017 90.1855 205.075 71.8421C205.133 53.432 205.333 32.5772 205.5 18.991L208.5 19.0278C208.333 32.6082 208.133 53.4534 208.075 71.8516C208.016 90.3166 208.103 106.157 208.492 109.852L205.508 110.166ZM205.5 19.0094C205.5 16.4314 205.483 13.891 204.833 12.0187C204.521 11.1212 204.102 10.5009 203.574 10.1083C203.063 9.72825 202.299 9.44928 201.071 9.50769L200.929 6.51108C202.701 6.42675 204.187 6.82623 205.364 7.70051C206.523 8.56213 207.229 9.77193 207.667 11.0349C208.517 13.4836 208.5 16.586 208.5 19.0094H205.5ZM201.071 9.50769C192.621 9.90979 90.1203 9.67591 39.995 9.50938L40.005 6.50939C90.213 6.6762 192.579 6.90837 200.929 6.51108L201.071 9.50769Z" fill="url(#paint8_linear_52_4)"/>
<path d="M596 333.509C596 337.928 599.582 341.509 604 341.509C608.418 341.509 612 337.928 612 333.509C612 329.091 608.418 325.509 604 325.509C599.582 325.509 596 329.091 596 333.509ZM651.5 333.509V335.009H651.571L651.642 335.003L651.5 333.509ZM663 232.009H661.5V232.019L661.5 232.028L663 232.009ZM669 221.009L669.071 219.511L669 221.009ZM822 221.009C822 225.428 825.582 229.009 830 229.009C834.418 229.009 838 225.428 838 221.009C838 216.591 834.418 213.009 830 213.009C825.582 213.009 822 216.591 822 221.009ZM604 335.009H651.5V332.009H604V335.009ZM651.642 335.003C653.606 334.816 656.538 334.019 659.122 332.214C661.746 330.38 664.038 327.476 664.492 323.166L661.508 322.852C661.162 326.143 659.454 328.322 657.403 329.755C655.312 331.216 652.894 331.87 651.358 332.016L651.642 335.003ZM664.492 323.166C664.903 319.262 664.983 303.185 664.925 284.842C664.867 266.432 664.667 245.577 664.5 231.991L661.5 232.028C661.667 245.608 661.867 266.453 661.925 284.852C661.984 303.317 661.897 319.157 661.508 322.852L664.492 323.166ZM664.5 232.009C664.5 229.431 664.517 226.891 665.167 225.019C665.479 224.121 665.898 223.501 666.426 223.108C666.937 222.728 667.701 222.449 668.929 222.508L669.071 219.511C667.299 219.427 665.813 219.826 664.636 220.701C663.477 221.562 662.771 222.772 662.333 224.035C661.483 226.484 661.5 229.586 661.5 232.009H664.5ZM668.929 222.508C677.379 222.91 779.88 222.676 830.005 222.509L829.995 219.509C779.787 219.676 677.421 219.908 669.071 219.511L668.929 222.508Z" fill="url(#paint9_linear_52_4)"/>
<path d="M620 106C620 101.582 623.582 98 628 98C632.418 98 636 101.582 636 106C636 110.418 632.418 114 628 114C623.582 114 620 110.418 620 106ZM658.265 106V104.5H658.337L658.408 104.507L658.265 106ZM665.593 170.955H664.093V170.945L664.093 170.936L665.593 170.955ZM669.416 177.994L669.488 179.492L669.416 177.994ZM764 177.994C764 173.576 767.582 169.994 772 169.994C776.418 169.994 780 173.576 780 177.994C780 182.412 776.418 185.994 772 185.994C767.582 185.994 764 182.412 764 177.994ZM628 104.5H658.265V107.5H628V104.5ZM658.408 104.507C659.738 104.634 661.7 105.17 663.436 106.388C665.213 107.635 666.777 109.624 667.085 112.563L664.101 112.876C663.899 110.951 662.915 109.687 661.713 108.844C660.469 107.971 659.023 107.579 658.123 107.493L658.408 104.507ZM667.085 112.563C667.351 115.099 667.401 125.429 667.364 137.146C667.327 148.93 667.199 162.277 667.093 170.973L664.093 170.936C664.199 162.247 664.327 148.908 664.364 137.137C664.401 125.298 664.345 115.203 664.101 112.876L667.085 112.563ZM667.093 170.955C667.093 172.632 667.11 174.158 667.489 175.253C667.665 175.763 667.881 176.053 668.103 176.219C668.308 176.372 668.662 176.528 669.344 176.496L669.488 179.492C668.258 179.551 667.179 179.273 666.308 178.623C665.456 177.987 664.955 177.106 664.653 176.233C664.076 174.563 664.093 172.478 664.093 170.955H667.093ZM669.344 176.496C674.747 176.237 740.082 176.387 772.005 176.494L771.995 179.494C739.989 179.387 674.789 179.239 669.488 179.492L669.344 176.496Z" fill="url(#paint10_linear_52_4)"/>
<defs>
<filter id="filter0_d_52_4" x="106.29" y="141.839" width="508.58" height="303.282" filterUnits="userSpaceOnUse" color-interpolation-filters="sRGB">
<feFlood flood-opacity="0" result="BackgroundImageFix"/>
<feColorMatrix in="SourceAlpha" type="matrix" values="0 0 0 0 0 0 0 0 0 0 0 0 0 0 0 0 0 0 127 0" result="hardAlpha"/>
<feOffset dy="6"/>
<feGaussianBlur stdDeviation="2"/>
<feComposite in2="hardAlpha" operator="out"/>
<feColorMatrix type="matrix" values="0 0 0 0 0 0 0 0 0 0 0 0 0 0 0 0 0 0 0.25 0"/>
<feBlend mode="normal" in2="BackgroundImageFix" result="effect1_dropShadow_52_4"/>
<feBlend mode="normal" in="SourceGraphic" in2="effect1_dropShadow_52_4" result="shape"/>
</filter>
<filter id="filter1_d_52_4" x="128.964" y="134.344" width="491.859" height="278.271" filterUnits="userSpaceOnUse" color-interpolation-filters="sRGB">
<feFlood flood-opacity="0" result="BackgroundImageFix"/>
<feColorMatrix in="SourceAlpha" type="matrix" values="0 0 0 0 0 0 0 0 0 0 0 0 0 0 0 0 0 0 127 0" result="hardAlpha"/>
<feOffset dy="6"/>
<feGaussianBlur stdDeviation="2"/>
<feComposite in2="hardAlpha" operator="out"/>
<feColorMatrix type="matrix" values="0 0 0 0 0 0 0 0 0 0 0 0 0 0 0 0 0 0 0.25 0"/>
<feBlend mode="normal" in2="BackgroundImageFix" result="effect1_dropShadow_52_4"/>
<feBlend mode="normal" in="SourceGraphic" in2="effect1_dropShadow_52_4" result="shape"/>
</filter>
<filter id="filter2_d_52_4" x="183.705" y="172.325" width="364.926" height="218.311" filterUnits="userSpaceOnUse" color-interpolation-filters="sRGB">
<feFlood flood-opacity="0" result="BackgroundImageFix"/>
<feColorMatrix in="SourceAlpha" type="matrix" values="0 0 0 0 0 0 0 0 0 0 0 0 0 0 0 0 0 0 127 0" result="hardAlpha"/>
<feOffset dy="4"/>
<feGaussianBlur stdDeviation="9.5"/>
<feComposite in2="hardAlpha" operator="out"/>
<feColorMatrix type="matrix" values="0 0 0 0 0 0 0 0 0 0 0 0 0 0 0 0 0 0 0.25 0"/>
<feBlend mode="normal" in2="BackgroundImageFix" result="effect1_dropShadow_52_4"/>
<feBlend mode="normal" in="SourceGraphic" in2="effect1_dropShadow_52_4" result="shape"/>
</filter>
<filter id="filter3_d_52_4" x="193.705" y="137.324" width="341.325" height="215.311" filterUnits="userSpaceOnUse" color-interpolation-filters="sRGB">
<feFlood flood-opacity="0" result="BackgroundImageFix"/>
<feColorMatrix in="SourceAlpha" type="matrix" values="0 0 0 0 0 0 0 0 0 0 0 0 0 0 0 0 0 0 127 0" result="hardAlpha"/>
<feOffset dy="26"/>
<feGaussianBlur stdDeviation="4.5"/>
<feComposite in2="hardAlpha" operator="out"/>
<feColorMatrix type="matrix" values="0 0 0 0 0 0 0 0 0 0 0 0 0 0 0 0 0 0 0.25 0"/>
<feBlend mode="normal" in2="BackgroundImageFix" result="effect1_dropShadow_52_4"/>
<feBlend mode="normal" in="SourceGraphic" in2="effect1_dropShadow_52_4" result="shape"/>
</filter>
<filter id="filter4_d_52_4" x="170.705" y="68.3242" width="402.926" height="256.311" filterUnits="userSpaceOnUse" color-interpolation-filters="sRGB">
<feFlood flood-opacity="0" result="BackgroundImageFix"/>
<feColorMatrix in="SourceAlpha" type="matrix" values="0 0 0 0 0 0 0 0 0 0 0 0 0 0 0 0 0 0 127 0" result="hardAlpha"/>
<feOffset dx="6" dy="15"/>
<feGaussianBlur stdDeviation="19"/>
<feComposite in2="hardAlpha" operator="out"/>
<feColorMatrix type="matrix" values="0 0 0 0 0 0 0 0 0 0 0 0 0 0 0 0 0 0 0.25 0"/>
<feBlend mode="normal" in2="BackgroundImageFix" result="effect1_dropShadow_52_4"/>
<feBlend mode="normal" in="SourceGraphic" in2="effect1_dropShadow_52_4" result="shape"/>
</filter>
<linearGradient id="paint0_linear_52_4" x1="193.004" y1="216.201" x2="599.834" y2="558.129" gradientUnits="userSpaceOnUse">
<stop stop-color="#19C3F9"/>
<stop offset="1" stop-color="#FF3E3E" stop-opacity="0.8"/>
</linearGradient>
<linearGradient id="paint1_linear_52_4" x1="193.004" y1="186.201" x2="599.834" y2="528.129" gradientUnits="userSpaceOnUse">
<stop stop-color="#F91984"/>
<stop offset="1" stop-color="#2EE2A1" stop-opacity="0.99"/>
</linearGradient>
<linearGradient id="paint2_linear_52_4" x1="216.443" y1="198.873" x2="549.001" y2="478.378" gradientUnits="userSpaceOnUse">
<stop stop-color="#9D21FF"/>
<stop offset="1" stop-color="#2B59FF" stop-opacity="0.14"/>
</linearGradient>
<linearGradient id="paint3_linear_52_4" x1="208.624" y1="174.923" x2="580.76" y2="487.692" gradientUnits="userSpaceOnUse">
<stop stop-color="#2EE2A1" stop-opacity="0.99"/>
<stop offset="1" stop-color="#F91984"/>
</linearGradient>
<linearGradient id="paint4_linear_52_4" x1="253.558" y1="214.599" x2="503.679" y2="424.817" gradientUnits="userSpaceOnUse">
<stop stop-color="#19C3F9"/>
<stop offset="1" stop-color="#FB3EFF" stop-opacity="0.14"/>
</linearGradient>
<linearGradient id="paint5_linear_52_4" x1="253.558" y1="164.599" x2="503.679" y2="374.817" gradientUnits="userSpaceOnUse">
<stop stop-color="#19C3F9"/>
<stop offset="1" stop-color="#FB3EFF" stop-opacity="0.14"/>
</linearGradient>
<linearGradient id="paint6_linear_52_4" x1="253.558" y1="118.599" x2="503.679" y2="328.817" gradientUnits="userSpaceOnUse">
<stop stop-color="#596AFF"/>
<stop offset="1" stop-color="#4D3EFF"/>
</linearGradient>
<linearGradient id="paint7_linear_52_4" x1="754" y1="-16.9919" x2="465" y2="135.508" gradientUnits="userSpaceOnUse">
<stop stop-color="#5048FF"/>
<stop offset="1" stop-color="#DF3A9D"/>
</linearGradient>
<linearGradient id="paint8_linear_52_4" x1="22" y1="-16.9919" x2="311" y2="135.508" gradientUnits="userSpaceOnUse">
<stop stop-color="#5048FF"/>
<stop offset="1" stop-color="#DF3A9D"/>
</linearGradient>
<linearGradient id="paint9_linear_52_4" x1="848" y1="196.008" x2="559" y2="348.508" gradientUnits="userSpaceOnUse">
<stop stop-color="#5048FF"/>
<stop offset="1" stop-color="#DF3A9D"/>
</linearGradient>
<linearGradient id="paint10_linear_52_4" x1="783.469" y1="193.994" x2="598.979" y2="97.0643" gradientUnits="userSpaceOnUse">
<stop stop-color="#5048FF"/>
<stop offset="1" stop-color="#DF3A9D"/>
</linearGradient>
</defs>
</svg>
