<svg width="538" height="538" viewBox="0 0 538 538" fill="none" xmlns="http://www.w3.org/2000/svg">
<path d="M538 269C538 322.203 522.223 374.212 492.665 418.448C463.107 462.685 421.095 497.164 371.942 517.524C322.789 537.884 268.702 543.211 216.521 532.831C164.34 522.452 116.409 496.832 78.7883 459.212C41.1679 421.591 15.5482 373.66 5.16876 321.479C-5.21066 269.298 0.116433 215.211 20.4764 166.058C40.8364 116.905 75.3148 74.8928 119.552 45.3347C163.788 15.7766 215.797 -6.34442e-07 269 0L269 103.588C236.285 103.588 204.304 113.289 177.102 131.465C149.9 149.641 128.699 175.474 116.179 205.7C103.659 235.925 100.384 269.183 106.766 301.27C113.149 333.357 128.903 362.831 152.036 385.964C175.169 409.097 204.643 424.851 236.73 431.234C268.817 437.616 302.075 434.341 332.3 421.821C362.526 409.301 388.359 388.1 406.535 360.898C424.711 333.696 434.412 301.715 434.412 269H538Z" fill="url(#paint0_linear_3_50)"/>
<defs>
<linearGradient id="paint0_linear_3_50" x1="269" y1="0" x2="269" y2="538" gradientUnits="userSpaceOnUse">
<stop stop-color="#FFBB54"/>
<stop offset="1" stop-color="#FFBB54" stop-opacity="0"/>
</linearGradient>
</defs>
</svg>
