<svg width="68" height="68" viewBox="0 0 68 68" fill="none" xmlns="http://www.w3.org/2000/svg">
<path d="M51 28.3334C51 25.5001 48.1667 22.6667 42.5 22.6667H39.6667C37.4123 22.6667 35.2503 21.7712 33.6563 20.1772C32.0622 18.5831 31.1667 16.4211 31.1667 14.1667V5.66675" stroke="white" stroke-width="4.25" stroke-linecap="round" stroke-linejoin="round"/>
<path d="M25.5 30.6C25.5 25.5935 17 17 17 17C17 17 8.5 25.5935 8.5 30.6C8.5 35.6065 12.3052 39.6667 17 39.6667C21.6948 39.6667 25.5 35.6065 25.5 30.6Z" stroke="white" stroke-width="4.25"/>
<path d="M51 59.5001H59.5V34.0001H51V46.7501M51 59.5001V46.7501M51 59.5001H29.75V46.7501L41.0833 39.6667L51 46.7501M59.5 28.3334C59.5 11.3334 48.1667 11.3334 48.1667 11.3334C48.1667 11.3334 59.5 12.7501 59.5 5.66675" stroke="white" stroke-width="4.25" stroke-linecap="round" stroke-linejoin="round"/>
</svg>
